<?xml version="1.0" encoding="UTF-8"?>
<svg id="SVGRoot" width="256px" height="256px" version="1.1" viewBox="0 0 256 256" xmlns="http://www.w3.org/2000/svg">
 <g transform="translate(-.079823 -13.761)" stroke="#2b1100" stroke-linecap="round" stroke-linejoin="round" stroke-width="2">
  <path d="m43 43v0.64062c0.047018-0.21379 0.11995-0.42738 0.21875-0.64062zm0 0.64062v168.53l-41.83 10.744s67.361-3.5125 78.353 5.5664c7.4563 6.1585 8.4258 26.4 8.4258 26.4s34.829-18.4 53.908-19.54c28.21-1.686 82.579 19.192 82.579 19.192s-36.119-28.065-34.102-34.286c2.1498-6.6317 64.655-16.383 64.655-16.383l-41.989-3.0156v-157.21c0 8.2843-38.056 15-85 15-46.944 0-85-6.7157-85-15zm170 0v-0.64062h-0.0781c0.0519 0.21342 0.0779 0.42701 0.0781 0.64062z" fill="#520"/>
  <ellipse cx="128" cy="43.64" rx="85" ry="15" fill="#fca"/>
 </g>
</svg>
