<?xml version="1.0" encoding="UTF-8" standalone="no"?>
<svg
   id="SVGRoot"
   width="256px"
   height="256px"
   version="1.1"
   viewBox="0 0 256 256"
   sodipodi:docname="logo.svg"
   inkscape:version="1.3.2 (091e20e, 2023-11-25)"
   xmlns:inkscape="http://www.inkscape.org/namespaces/inkscape"
   xmlns:sodipodi="http://sodipodi.sourceforge.net/DTD/sodipodi-0.dtd"
   xmlns="http://www.w3.org/2000/svg"
   xmlns:svg="http://www.w3.org/2000/svg">
  <defs
     id="defs1" />
  <sodipodi:namedview
     id="namedview1"
     pagecolor="#ffffff"
     bordercolor="#111111"
     borderopacity="1"
     inkscape:showpageshadow="0"
     inkscape:pageopacity="0"
     inkscape:pagecheckerboard="1"
     inkscape:deskcolor="#d1d1d1"
     inkscape:zoom="4.4163492"
     inkscape:cx="123.29188"
     inkscape:cy="89.440392"
     inkscape:window-width="3008"
     inkscape:window-height="1639"
     inkscape:window-x="0"
     inkscape:window-y="62"
     inkscape:window-maximized="1"
     inkscape:current-layer="SVGRoot" />
  <path
     d="m 42.920177,29.239 v 0.64062 c 0.04702,-0.21379 0.11995,-0.42738 0.21875,-0.64062 z m 0,0.64062 c 0,0 9.640273,121.72306 -11.985731,149.60564 -21.6260041,27.88258 -29.844269,29.66836 -29.844269,29.66836 0,0 67.361,-3.5125 78.353,5.5664 7.4563,6.1585 4.417027,24.12669 8.4258,26.4 4.008773,2.27331 34.829003,-18.4 53.908003,-19.54 28.21,-1.686 76.51012,21.90073 82.579,19.192 6.06888,-2.70873 -36.119,-28.065 -34.102,-34.286 2.1498,-6.6317 64.88251,-12.04903 64.655,-16.383 -0.22751,-4.33397 -14.9859,-8.06328 -28.15931,-23.16926 -13.17341,-15.10598 -13.82969,-137.05634 -13.82969,-137.05634 0,8.2843 -38.056,15 -85,15 -46.944003,0 -85.000003,-6.7157 -85.000003,-15 z m 170.000003,0 V 29.239 h -0.0781 c 0.0519,0.21342 0.0779,0.42701 0.0781,0.64062 z"
     fill="#520"
     id="path1"
     style="fill:#552200;stroke:#552200;stroke-width:2;stroke-linecap:round;stroke-linejoin:round;fill-opacity:1;stroke-opacity:1"
     sodipodi:nodetypes="ccccczcczczczzcscccccc" />
  <ellipse
     cx="127.88374"
     cy="29.834675"
     rx="85"
     ry="15"
     fill="#fca"
     id="ellipse1"
     style="fill:#ffccaa;stroke:#552200;stroke-width:2;stroke-linecap:round;stroke-linejoin:round;fill-opacity:1;stroke-opacity:1" />
  <ellipse
     fill="#fca"
     id="ellipse3"
     style="fill:none;stroke:#552200;stroke-width:2;stroke-linecap:round;stroke-linejoin:round;stroke-opacity:1"
     ry="11.8"
     rx="67.800003"
     cy="29.834675"
     cx="127.88374" />
  <ellipse
     fill="#fca"
     id="ellipse4"
     style="fill:none;stroke:#552200;stroke-width:2;stroke-linecap:round;stroke-linejoin:round;stroke-opacity:1"
     ry="9.2399998"
     rx="54.040001"
     cy="29.834675"
     cx="127.88374" />
  <ellipse
     fill="#fca"
     id="ellipse6"
     style="fill:none;stroke:#552200;stroke-width:2;stroke-linecap:round;stroke-linejoin:round;stroke-opacity:1"
     ry="5.5535998"
     rx="34.225601"
     cy="29.834675"
     cx="127.88374" />
  <ellipse
     cx="127.88374"
     cy="29.834675"
     rx="17.035507"
     ry="2.3554432"
     fill="#fca"
     id="ellipse8"
     style="fill:none;stroke:#552200;stroke-width:2;stroke-linecap:round;stroke-linejoin:round;stroke-opacity:1" />
</svg>
